{"title":"Redirected (2014) HDRip 286 MiB (x265 HEVC) HinDi Audio - SSEC","uid":13445665,"size":299908017,"categoryP":"video","categoryS":"movies","magnet":"?xt=urn:btih:f7e94c9476adab35d97d6a00b68da7663c619b4f&amp;dn=Redirected+%282014%29+HDRip+286+MiB+%28x265+HEVC%29+HinDi+Audio+-+SSEC&amp;tr=udp%3A%2F%2Ftracker.leechers-paradise.org%3A6969&amp;tr=udp%3A%2F%2Fzer0day.ch%3A1337&amp;tr=udp%3A%2F%2Fopen.demonii.com%3A1337&amp;tr=udp%3A%2F%2Ftracker.coppersurfer.tk%3A6969&amp;tr=udp%3A%2F%2Fexodus.desync.com%3A6969","seeders":0,"leechers":0,"uploader":"Lion.King","files":3,"time":1454745883,"description":"General\r\nUnique ID : 192144553780407563049464131398019852152 (0x908DB1EA0E55B28AB61C0799DF182778)\r\nComplete name : Redirected (2014) HDRip 286 MiB (x265 HEVC) HinDi Audio - SSECRedirected (2014) HDRip 286 MiB (x265 HEVC) HinDi Audio - SSEC.mkv\r\nFormat : Matroska\r\nFormat version : Version 4 / Version 2\r\nFile size : 286 MiB\r\nDuration : 1h 32mn\r\nOverall bit rate : 432 Kbps\r\nMovie name : Redirected (2014) HDRip 286 MiB (x265 HEVC) HinDi Audio - SSEC\r\nEncoded date : UTC 2016-02-06 05:00:20\r\nWriting application : mkvmerge v7.9.0 ('Birds') 64bit\r\nWriting library : libebml v1.3.1 + libmatroska v1.4.2\r\n_STATISTICS_WRITING_APP : mkvmerge v7.9.0 ('Birds') 64bit\r\n_STATISTICS_WRITING_DATE_UT : 2016-02-06 05:00:20\r\n_STATISTICS_TAGS : BPS DURATION NUMBER_OF_FRAMES NUMBER_OF_BYTES\r\nDURATION : 01:32:35.640000000\r\nNUMBER_OF_FRAMES : 231485\r\nNUMBER_OF_BYTES : 66667680\r\n\r\nVideo\r\nID : 1\r\nFormat : HEVC\r\nFormat/Info : High Efficiency Video Coding\r\nFormat profile :   @Main\r\nCodec ID : V_MPEGH/ISO/HEVC\r\nDuration : 1h 32mn\r\nBit rate : 327 Kbps\r\nWidth : 678 pixels\r\nHeight : 382 pixels\r\nDisplay aspect ratio : 16:9\r\nFrame rate mode : Constant\r\nFrame rate : 23.976 fps\r\nColor space : YUV\r\nChroma subsampling : 4:2:0\r\nBit depth : 8 bits\r\nBits/(Pixel*Frame) : 0.053\r\nStream size : 217 MiB (76%)\r\nTitle : Redirected (2014) HDRip 286 MiB (x265 HEVC) HinDi Audio - SSEC\r\nWriting library : x265 1.5:[Windows][GCC 4.9.0][64 bit]\r\nEncoding settings : wpp / ctu=32 / tu-intra-depth=1 / tu-inter-depth=1 / me=0 / subme=0 / merange=25 / no-rect / no-amp / max-merge=2 / temporal-mvp / early-skip / no-fast-cbf / rdpenalty=0 / no-tskip / no-tskip-fast / strong-intra-smoothing / no-lossless / no-cu-lossless / no-constrained-intra / fast-intra / open-gop / interlace=0 / keyint=240 / min-keyint=24 / scenecut=0 / rc-lookahead=10 / bframes=4 / bframe-bias=0 / b-adapt=0 / ref=1 / no-weightp / no-weightb / aq-mode=0 / aq-strength=0.00 / cbqpoffs=0 / crqpoffs=0 / rd=2 / psy-rd=0.30 / psy-rdoq=0.00 / no-signhide / lft / no-sao / no-sao-non-deblock / b-pyramid / no-cutree / rc=crf / crf=25.0 / qcomp=0.60 / qpmin=0 / qpmax=51 / qpstep=4 / ipratio=1.40 / pbratio=1.30\r\nLanguage : English\r\nDefault : Yes\r\nForced : No\r\nColor range : Limited\r\nColor primaries : BT.601 NTSC\r\nTransfer characteristics : BT.709\r\nMatrix coefficients : BT.601\r\nDURATION : 01:32:35.383000000\r\nNUMBER_OF_FRAMES : 133196\r\nNUMBER_OF_BYTES : 231950964\r\n_STATISTICS_WRITING_APP : mkvmerge v7.9.0 ('Birds') 64bit\r\n_STATISTICS_WRITING_DATE_UT : 2016-02-06 05:00:20\r\n_STATISTICS_TAGS : BPS DURATION NUMBER_OF_FRAMES NUMBER_OF_BYTES\r\n\r\nAudio\r\nID : 2\r\nFormat : MPEG Audio\r\nFormat version : Version 1\r\nFormat profile : Layer 3\r\nMode : Joint stereo\r\nMode extension : MS Stereo\r\nCodec ID : A_MPEG/L3\r\nCodec ID/Hint : MP3\r\nDuration : 1h 37mn\r\nBit rate mode : Constant\r\nBit rate : 96.0 Kbps\r\nChannel(s) : 2 channels\r\nSampling rate : 48.0 KHz\r\nCompression mode : Lossy\r\nDelay relative to video : -83ms\r\nStream size : 66.9 MiB (23%)\r\nTitle : Redirected (2014) HDRip 286 MiB (x265 HEVC) HinDi Audio - SSEC\r\nWriting library : LAME3.99.5\r\nLanguage : Hindi\r\nDefault : Yes\r\nForced : No","torrent":{"xt":"urn:btih:f7e94c9476adab35d97d6a00b68da7663c619b4f","amp;dn":"Redirected+%282014%29+HDRip+286+MiB+%28x265+HEVC%29+HinDi+Audio+-+SSEC","amp;tr":["udp%3A%2F%2Ftracker.leechers-paradise.org%3A6969","udp%3A%2F%2Fzer0day.ch%3A1337","udp%3A%2F%2Fopen.demonii.com%3A1337","udp%3A%2F%2Ftracker.coppersurfer.tk%3A6969","udp%3A%2F%2Fexodus.desync.com%3A6969"],"infoHash":"f7e94c9476adab35d97d6a00b68da7663c619b4f","infoHashBuffer":{"type":"Buffer","data":[247,233,76,148,118,173,171,53,217,125,106,0,182,141,167,102,60,97,155,79]},"announce":[],"urlList":[]}}